<svg width="30" height="30" viewBox="0 0 30 30" fill="none" xmlns="http://www.w3.org/2000/svg">
<path d="M23.9869 11.0973C23.7745 10.3008 23.1506 9.67694 22.3674 9.46455C20.9338 9.07959 15.2125 9.07959 15.2125 9.07959C15.2125 9.07959 9.478 9.07959 8.05765 9.46455C7.27446 9.67694 6.65057 10.3008 6.43818 11.0973C6.05322 12.5309 6.05322 15.5309 6.05322 15.5309C6.05322 15.5309 6.05322 18.5309 6.43818 19.9646C6.65057 20.761 7.27446 21.3849 8.05765 21.5973C9.49128 21.9823 15.2125 21.9823 15.2125 21.9823C15.2125 21.9823 20.947 21.9823 22.3674 21.5973C23.1506 21.3849 23.7745 20.761 23.9869 19.9646C24.3718 18.5309 24.3718 15.5309 24.3718 15.5309C24.3718 15.5309 24.3718 12.5309 23.9869 11.0973ZM13.3408 18.2522V12.8097L18.1329 15.5309L13.3408 18.2522Z" fill="white"/>
<path fill-rule="evenodd" clip-rule="evenodd" d="M25.4602 1.51327H4.53982C2.8683 1.51327 1.51327 2.8683 1.51327 4.53982V25.4602C1.51327 27.1317 2.8683 28.4867 4.53982 28.4867H25.4602C27.1317 28.4867 28.4867 27.1317 28.4867 25.4602V4.53982C28.4867 2.8683 27.1317 1.51327 25.4602 1.51327ZM4.53982 0H25.4602C27.9675 0 30 2.03255 30 4.53982V25.4602C30 27.9675 27.9675 30 25.4602 30H4.53982C2.03254 30 0 27.9675 0 25.4602V4.53982C0 2.03254 2.03255 0 4.53982 0Z" fill="white"/>
</svg>
