<svg width="30" height="30" viewBox="0 0 30 30" fill="none" xmlns="http://www.w3.org/2000/svg">
<g clip-path="url(#clip0_38_525)">
<path fill-rule="evenodd" clip-rule="evenodd" d="M22.1332 6.01538H7.76895C5.73588 6.01538 4.08008 7.67817 4.08008 9.70425V18.633C4.08008 20.6661 5.74286 22.3219 7.76895 22.3219H12.8411L13.7145 23.8309L14.5738 25.3191C14.7275 25.5915 15.1187 25.5915 15.2794 25.3191L16.1388 23.8309L17.0121 22.3219H22.1402C24.1732 22.3219 25.829 20.6591 25.829 18.633V9.71124C25.829 7.67817 24.1662 6.01538 22.1332 6.01538ZM15.9571 12.5547C14.8462 12.5547 13.9449 13.442 13.9449 14.5389C13.9449 15.6358 14.8462 16.5231 15.9571 16.5231C17.0679 16.5231 17.9692 15.6358 17.9692 14.5389C17.9692 13.442 17.0749 12.5547 15.9571 12.5547ZM15.9571 15.4891C15.4261 15.4891 14.9929 15.0629 14.9929 14.5389C14.9929 14.0149 15.4261 13.5887 15.9571 13.5887C16.488 13.5887 16.9212 14.0149 16.9212 14.5389C16.9212 15.0629 16.495 15.4891 15.9571 15.4891ZM8.43962 13.0089C8.75401 12.7224 9.15922 12.5547 9.59239 12.5547C10.5984 12.5547 11.4019 13.449 11.4019 14.5459C11.4019 15.6428 10.5915 16.5301 9.59239 16.5301C9.15224 16.5301 8.75401 16.3554 8.43962 16.0759V16.4323H7.32178V11.367H8.43962V13.0089ZM8.4466 14.9302C8.60031 15.2865 8.95662 15.531 9.36882 15.531C9.92774 15.531 10.3749 15.0908 10.3749 14.5389C10.3749 13.987 9.92774 13.5468 9.36882 13.5468C8.95662 13.5468 8.60031 13.7914 8.4466 14.1477C8.39071 14.2664 8.36276 14.3992 8.36276 14.5389C8.36276 14.6786 8.3977 14.8114 8.4466 14.9302ZM21.4555 12.6386V12.953C21.1411 12.7085 20.7498 12.5617 20.3306 12.5617C19.3036 12.5617 18.4722 13.4211 18.4722 14.476C18.4722 15.531 19.3036 16.3903 20.3306 16.3903C20.7568 16.3903 21.1481 16.2436 21.4555 15.9991V16.5301C21.4555 16.5301 21.3437 17.0541 20.5612 17.0541V18.0392C20.5612 18.0392 21.4066 18.137 22.1611 17.3824C22.1611 17.3824 22.5104 17.0121 22.5873 16.5231V12.6386H21.4555ZM20.5402 15.4472C19.9743 15.4472 19.5202 15.007 19.5202 14.4691C19.5202 13.9311 19.9813 13.491 20.5402 13.491C20.9385 13.491 21.2878 13.7145 21.4555 14.0359C21.5253 14.1686 21.5603 14.3154 21.5603 14.4691C21.5603 14.6228 21.5183 14.7765 21.4555 14.9022C21.2878 15.2306 20.9385 15.4472 20.5402 15.4472ZM11.5277 12.2823V11.2692C11.5277 11.2692 12.2682 11.1714 12.925 11.9469C12.925 11.9469 13.2254 12.3242 13.2953 12.8272V12.8552V16.4322H12.1425V12.8552C12.0447 12.3521 11.5277 12.2823 11.5277 12.2823Z" fill="white"/>
<path fill-rule="evenodd" clip-rule="evenodd" d="M25.4602 1.51327H4.53982C2.8683 1.51327 1.51327 2.8683 1.51327 4.53982V25.4602C1.51327 27.1317 2.8683 28.4867 4.53982 28.4867H25.4602C27.1317 28.4867 28.4867 27.1317 28.4867 25.4602V4.53982C28.4867 2.8683 27.1317 1.51327 25.4602 1.51327ZM4.53982 0H25.4602C27.9675 0 30 2.03255 30 4.53982V25.4602C30 27.9675 27.9675 30 25.4602 30H4.53982C2.03254 30 0 27.9675 0 25.4602V4.53982C0 2.03254 2.03255 0 4.53982 0Z" fill="white"/>
</g>
<defs>
<clipPath id="clip0_38_525">
<rect width="30" height="30" fill="white"/>
</clipPath>
</defs>
</svg>
