<svg width="30" height="30" viewBox="0 0 30 30" fill="none" xmlns="http://www.w3.org/2000/svg">
<path fill-rule="evenodd" clip-rule="evenodd" d="M24 1.5H6C3.51472 1.5 1.5 3.51472 1.5 6V24C1.5 26.4853 3.51472 28.5 6 28.5H24C26.4853 28.5 28.5 26.4853 28.5 24V6C28.5 3.51472 26.4853 1.5 24 1.5ZM6 0C2.68629 0 0 2.68629 0 6V24C0 27.3137 2.68629 30 6 30H24C27.3137 30 30 27.3137 30 24V6C30 2.68629 27.3137 0 24 0H6Z" fill="white"/>
<g clip-path="url(#clip0_38_572)">
<path d="M24.75 15.0594C24.75 9.64124 20.3854 5.25 15 5.25C9.61465 5.25 5.25 9.64124 5.25 15.0594C5.25 19.9564 8.81484 24.0143 13.4766 24.75V17.8949H11.001V15.0594H13.4766V12.8983C13.4766 10.4402 14.9314 9.08179 17.1595 9.08179C18.2259 9.08179 19.3418 9.27338 19.3418 9.27338V11.6874H18.1116C16.9005 11.6874 16.5234 12.4442 16.5234 13.2201V15.0594H19.2275L18.7953 17.8949H16.5234V24.75C21.1852 24.0143 24.75 19.9564 24.75 15.0594Z" fill="white"/>
</g>
<defs>
<clipPath id="clip0_38_572">
<rect width="19.5" height="19.5" fill="white" transform="translate(5.25 5.25)"/>
</clipPath>
</defs>
</svg>
