<svg width="30" height="30" viewBox="0 0 30 30" fill="none" xmlns="http://www.w3.org/2000/svg">
<g clip-path="url(#clip0_38_593)">
<path d="M23.1463 30H6.85375C3.08104 30 0 26.912 0 23.1463V6.85375C0 3.08803 3.08803 0 6.85375 0H23.1463C26.919 0 30 3.08803 30 6.85375V23.1463C30 26.919 26.919 30 23.1463 30Z" fill="white"/>
<path d="M22.1332 6.01538H7.76895C5.73588 6.01538 4.08008 7.67817 4.08008 9.70425V18.633C4.08008 20.6661 5.74286 22.3219 7.76895 22.3219H12.8411L13.7145 23.8309L14.5738 25.3191C14.7275 25.5915 15.1187 25.5915 15.2794 25.3191L16.1388 23.8309L17.0121 22.3219H22.1402C24.1732 22.3219 25.829 20.6591 25.829 18.633V9.71124C25.829 7.67817 24.1662 6.01538 22.1332 6.01538Z" fill="url(#paint0_linear_38_593)"/>
<path d="M15.9569 12.5547C14.8461 12.5547 13.9448 13.442 13.9448 14.5389C13.9448 15.6357 14.8461 16.523 15.9569 16.523C17.0678 16.523 17.969 15.6357 17.969 14.5389C17.969 13.442 17.0748 12.5547 15.9569 12.5547ZM15.9569 15.489C15.426 15.489 14.9928 15.0628 14.9928 14.5389C14.9928 14.0149 15.426 13.5887 15.9569 13.5887C16.4879 13.5887 16.9211 14.0149 16.9211 14.5389C16.9211 15.0628 16.4949 15.489 15.9569 15.489Z" fill="white"/>
<path d="M9.59239 12.5548C9.15922 12.5548 8.75401 12.7224 8.43962 13.0089V11.3671H7.32178V16.4323H8.43962V16.076C8.75401 16.3554 9.15224 16.5301 9.59239 16.5301C10.5915 16.5301 11.4019 15.6428 11.4019 14.5459C11.4019 13.449 10.5984 12.5548 9.59239 12.5548ZM9.36882 15.531C8.95662 15.531 8.60031 15.2865 8.4466 14.9302C8.3977 14.8114 8.36276 14.6787 8.36276 14.5389C8.36276 14.3992 8.39071 14.2665 8.4466 14.1477C8.60031 13.7914 8.95662 13.5469 9.36882 13.5469C9.92774 13.5469 10.3749 13.987 10.3749 14.5389C10.3749 15.0909 9.92774 15.531 9.36882 15.531Z" fill="white"/>
<path d="M21.4554 12.6386V12.953C21.141 12.7085 20.7498 12.5618 20.3306 12.5618C19.3036 12.5618 18.4722 13.4211 18.4722 14.4761C18.4722 15.531 19.3036 16.3904 20.3306 16.3904C20.7568 16.3904 21.148 16.2436 21.4554 15.9991V16.5301C21.4554 16.5301 21.3436 17.0541 20.5611 17.0541V18.0392C20.5611 18.0392 21.4065 18.137 22.161 17.3824C22.161 17.3824 22.5104 17.0122 22.5872 16.5231V12.6386H21.4554V12.6386ZM20.5402 15.4472C19.9743 15.4472 19.5201 15.007 19.5201 14.4691C19.5201 13.9311 19.9813 13.491 20.5402 13.491C20.9384 13.491 21.2877 13.7145 21.4554 14.0359C21.5253 14.1687 21.5602 14.3154 21.5602 14.4691C21.5602 14.6228 21.5183 14.7765 21.4554 14.9022C21.2877 15.2306 20.9384 15.4472 20.5402 15.4472Z" fill="white"/>
<path d="M11.5278 11.2692V12.2823C11.5278 12.2823 12.0448 12.3521 12.1426 12.8552V16.4322H13.2954V12.8552V12.8272C13.2256 12.3242 12.9251 11.9469 12.9251 11.9469C12.2684 11.1714 11.5278 11.2692 11.5278 11.2692Z" fill="white"/>
</g>
<defs>
<linearGradient id="paint0_linear_38_593" x1="14.9533" y1="25.522" x2="14.9533" y2="6.01734" gradientUnits="userSpaceOnUse">
<stop stop-color="#00D44D"/>
<stop offset="1" stop-color="#00E56D"/>
</linearGradient>
<clipPath id="clip0_38_593">
<rect width="30" height="30" fill="white"/>
</clipPath>
</defs>
</svg>
