<svg width="37" height="37" viewBox="0 0 37 37" fill="none" xmlns="http://www.w3.org/2000/svg">
<mask id="mask0_354_977" style="mask-type:alpha" maskUnits="userSpaceOnUse" x="0" y="0" width="37" height="37">
<rect x="0.166504" y="0.5" width="36" height="36" fill="#D9D9D9"/>
</mask>
<g mask="url(#mask0_354_977)">
<path d="M18.1665 19.925V6.42499C18.1665 5.99999 18.3105 5.64349 18.5985 5.35549C18.8855 5.06849 19.2415 4.92499 19.6665 4.92499H30.1665C30.5915 4.92499 30.9475 5.06849 31.2345 5.35549C31.5225 5.64349 31.6665 5.99999 31.6665 6.42499V13.925C31.6665 14.35 31.5225 14.706 31.2345 14.993C30.9475 15.281 30.5915 15.425 30.1665 15.425H22.6665L18.1665 19.925ZM21.1665 12.425H28.6665V7.92499H21.1665V12.425ZM30.0915 32C26.8665 32 23.723 31.281 20.661 29.843C17.598 28.406 14.8855 26.506 12.5235 24.143C10.1605 21.781 8.2605 19.0685 6.8235 16.0055C5.3855 12.9435 4.6665 9.79999 4.6665 6.57499C4.6665 6.12499 4.8165 5.74999 5.1165 5.44999C5.4165 5.14999 5.7915 4.99999 6.2415 4.99999H12.3165C12.6665 4.99999 12.979 5.11249 13.254 5.33749C13.529 5.56249 13.6915 5.84999 13.7415 6.19999L14.7165 11.45C14.7665 11.8 14.7605 12.1185 14.6985 12.4055C14.6355 12.6935 14.4915 12.95 14.2665 13.175L10.629 16.85C11.679 18.65 12.998 20.3375 14.586 21.9125C16.173 23.4875 17.9165 24.85 19.8165 26L23.3415 22.475C23.5665 22.25 23.8605 22.081 24.2235 21.968C24.5855 21.856 24.9415 21.825 25.2915 21.875L30.4665 22.925C30.8165 23 31.104 23.1685 31.329 23.4305C31.554 23.6935 31.6665 24 31.6665 24.35V30.425C31.6665 30.875 31.5165 31.25 31.2165 31.55C30.9165 31.85 30.5415 32 30.0915 32ZM9.204 14L11.679 11.525L11.0415 7.99999H7.704C7.829 9.02499 8.004 10.0375 8.229 11.0375C8.454 12.0375 8.779 13.025 9.204 14ZM22.629 27.425C23.604 27.85 24.598 28.1875 25.611 28.4375C26.623 28.6875 27.6415 28.85 28.6665 28.925V25.625L25.1415 24.9125L22.629 27.425Z" fill="#FD33A7"/>
</g>
</svg>
