<svg width="37" height="37" viewBox="0 0 37 37" fill="none" xmlns="http://www.w3.org/2000/svg">
<g clip-path="url(#clip0_355_990)">
<path d="M13.559 0.553008L13.5059 0.5L13.4528 0.553008H0.833496V36.5H36.8335V0.553008H13.559ZM33.2312 4.14998V11.7225L29.0071 15.9405L20.1038 7.08814L18.8297 5.8008L17.1613 4.13483L33.2312 4.14998ZM11.2384 18.5379L18.8297 10.9047L26.4665 18.5303L18.8373 26.1559L11.2384 18.5379ZM12.1105 4.14998L16.3271 8.36033L7.98496 16.6902L4.43577 20.1887V4.14998H12.1105ZM4.43577 25.2472L8.63716 21.052L18.8297 31.2371L20.4981 32.903H4.43577V25.2472ZM25.5944 32.903L21.3778 28.6927L31.5628 18.5303L33.2388 16.8492V32.903H25.5944Z" fill="#FD33A7"/>
</g>
<defs>
<clipPath id="clip0_355_990">
<rect width="36" height="36" fill="white" transform="translate(0.833496 0.5)"/>
</clipPath>
</defs>
</svg>
