<svg width="37" height="37" viewBox="0 0 37 37" fill="none" xmlns="http://www.w3.org/2000/svg">
<mask id="mask0_353_947" style="mask-type:alpha" maskUnits="userSpaceOnUse" x="0" y="0" width="37" height="37">
<rect x="0.666504" y="0.5" width="36" height="36" fill="#D9D9D9"/>
</mask>
<g mask="url(#mask0_353_947)">
<path d="M27.6665 17C25.5915 17 23.823 16.2685 22.361 14.8055C20.898 13.3435 20.1665 11.575 20.1665 9.5C20.1665 7.45 20.8915 5.6875 22.3415 4.2125C23.7915 2.7375 25.5665 2 27.6665 2C29.7415 2 31.5105 2.731 32.9735 4.193C34.4355 5.656 35.1665 7.425 35.1665 9.5C35.1665 11.575 34.4355 13.3435 32.9735 14.8055C31.5105 16.2685 29.7415 17 27.6665 17ZM26.9165 11H28.4165V5H26.9165V11ZM6.6665 30.5C6.2415 30.5 5.8855 30.356 5.5985 30.068C5.3105 29.781 5.1665 29.425 5.1665 29V17L8.3165 8C8.4665 7.55 8.7355 7.1875 9.1235 6.9125C9.5105 6.6375 9.9415 6.5 10.4165 6.5H17.6165C17.4665 6.975 17.354 7.4625 17.279 7.9625C17.204 8.4625 17.1665 8.975 17.1665 9.5H10.9415L9.3665 14H18.179C18.454 14.575 18.7725 15.1125 19.1345 15.6125C19.4975 16.1125 19.904 16.575 20.354 17H8.1665V24.5H29.1665V19.8875C29.6915 19.8125 30.204 19.7 30.704 19.55C31.204 19.4 31.6915 19.2125 32.1665 18.9875V29C32.1665 29.425 32.0225 29.781 31.7345 30.068C31.4475 30.356 31.0915 30.5 30.6665 30.5H29.1665C28.7415 30.5 28.3855 30.356 28.0985 30.068C27.8105 29.781 27.6665 29.425 27.6665 29V27.5H9.6665V29C9.6665 29.425 9.523 29.781 9.236 30.068C8.948 30.356 8.5915 30.5 8.1665 30.5H6.6665ZM27.6665 14C27.8665 14 28.0415 13.925 28.1915 13.775C28.3415 13.625 28.4165 13.45 28.4165 13.25C28.4165 13.05 28.3415 12.875 28.1915 12.725C28.0415 12.575 27.8665 12.5 27.6665 12.5C27.4665 12.5 27.2915 12.575 27.1415 12.725C26.9915 12.875 26.9165 13.05 26.9165 13.25C26.9165 13.45 26.9915 13.625 27.1415 13.775C27.2915 13.925 27.4665 14 27.6665 14ZM11.9165 23C12.5415 23 13.0725 22.781 13.5095 22.343C13.9475 21.906 14.1665 21.375 14.1665 20.75C14.1665 20.125 13.9475 19.594 13.5095 19.157C13.0725 18.719 12.5415 18.5 11.9165 18.5C11.2915 18.5 10.7605 18.719 10.3235 19.157C9.8855 19.594 9.6665 20.125 9.6665 20.75C9.6665 21.375 9.8855 21.906 10.3235 22.343C10.7605 22.781 11.2915 23 11.9165 23ZM25.4165 23C26.0415 23 26.5725 22.781 27.0095 22.343C27.4475 21.906 27.6665 21.375 27.6665 20.75C27.6665 20.625 27.6605 20.5 27.6485 20.375C27.6355 20.25 27.604 20.125 27.554 20C26.879 20 26.223 19.9375 25.586 19.8125C24.948 19.6875 24.3415 19.5 23.7665 19.25C23.5665 19.45 23.4165 19.681 23.3165 19.943C23.2165 20.206 23.1665 20.475 23.1665 20.75C23.1665 21.375 23.3855 21.906 23.8235 22.343C24.2605 22.781 24.7915 23 25.4165 23Z" fill="#FD33A7"/>
</g>
</svg>
