<svg width="37" height="37" viewBox="0 0 37 37" fill="none" xmlns="http://www.w3.org/2000/svg">
<mask id="mask0_353_959" style="mask-type:alpha" maskUnits="userSpaceOnUse" x="0" y="0" width="37" height="37">
<rect x="0.333496" y="0.5" width="36" height="36" fill="#D9D9D9"/>
</mask>
<g mask="url(#mask0_353_959)">
<path d="M6.8959 32L4.7959 29.9L20.1709 14.525C19.7209 13.475 19.6584 12.2875 19.9834 10.9625C20.3084 9.6375 21.0209 8.45 22.1209 7.4C23.4459 6.075 24.9209 5.3 26.5459 5.075C28.1709 4.85 29.4959 5.25 30.5209 6.275C31.5459 7.3 31.9459 8.625 31.7209 10.25C31.4959 11.875 30.7209 13.35 29.3959 14.675C28.3459 15.775 27.1584 16.4875 25.8334 16.8125C24.5084 17.1375 23.3209 17.075 22.2709 16.625L20.3959 18.5L31.7959 29.9L29.6959 32L18.2959 20.675L6.8959 32ZM11.3209 19.175L6.8209 14.675C5.4709 13.325 4.7959 11.7125 4.7959 9.8375C4.7959 7.9625 5.4709 6.35 6.8209 5L16.1209 14.375L11.3209 19.175Z" fill="#FD33A7"/>
</g>
</svg>
